<!--?xml version="1.0" encoding="utf-8"?-->
<!-- Generator: Adobe Illustrator 23.0.1, SVG Export Plug-In . SVG Version: 6.00 Build 0)  -->
<svg version="1.1" id="Layer_2" xmlns="http://www.w3.org/2000/svg" xmlns:xlink="http://www.w3.org/1999/xlink" x="0px" y="0px" viewBox="0 0 58.9 58.9" style="" xml:space="preserve">
<style type="text/css">
	.st0{fill:none;stroke:#A7A9AC;stroke-width:1.1;stroke-miterlimit:10;}
</style>
<g>
	<path class="st0 aRRhEcfE_0" d="M13.16,49.12c0.04,0.11,0.04,0.19-0.01,0.24c-0.03,0.03-0.08,0.06-0.14,0.11c-0.06,0.04-0.11,0.08-0.14,0.11
		c-0.3,0.3-0.65,0.84-1.03,1.61c-0.39,0.77-0.73,1.3-1.04,1.61c-1,1-2.33,0.66-4.01-1.01c-1.33-1.33-2.42-2.5-3.29-3.51l-0.32-0.36
		c-0.06-0.06-0.14-0.12-0.24-0.19c-0.11-0.07-0.18-0.12-0.21-0.16c-0.17-0.17-0.15-0.38,0.06-0.64c0.23-0.29,0.64-0.92,1.22-1.88
		c0.53-0.87,0.95-1.46,1.25-1.76c0.04-0.04,0.09-0.08,0.17-0.13c0.11-0.12,0.25-0.2,0.42-0.23s0.3-0.01,0.38,0.06
		c0.14,0.14,0.03,0.39-0.33,0.75c-0.33,0.33-0.75,0.86-1.26,1.6c-0.57,0.84-0.87,1.42-0.9,1.73c0.48,0.59,1.25,1.5,2.32,2.73
		c0.06,0.01,0.12-0.01,0.17-0.06c0.21-0.21,0.46-0.59,0.74-1.15c0.28-0.55,0.54-0.94,0.75-1.16c0.18-0.18,0.4-0.31,0.67-0.39
		l0.4,0.23c0.04,0.01,0,0.16-0.13,0.42c-0.17,0.03-0.33,0.12-0.49,0.28c-0.18,0.18-0.45,0.58-0.81,1.19
		c-0.37,0.62-0.59,1.06-0.68,1.32c0.13,0.18,0.47,0.56,1.04,1.12c1.07,1.07,1.87,1.33,2.42,0.79c0.26-0.26,0.55-0.72,0.87-1.39
		c0.32-0.66,0.61-1.13,0.87-1.39C12.35,49.17,12.77,49,13.16,49.12z"></path>
	<path class="st0 aRRhEcfE_1" d="M13.47,41.25c0.65,0.57,1.36,1.53,2.13,2.9c0.87,1.51,1.13,2.44,0.78,2.79c-0.42,0.42-1.26,0.36-2.51-0.18
		c-0.76-0.33-1.59-0.79-2.48-1.38c-0.42-0.28-0.82-0.6-1.2-0.99c-0.06-0.06-0.08-0.15-0.08-0.27s0.03-0.21,0.08-0.27
		c0.08-0.08,0.28-0.14,0.59-0.17c0.09,0.15,0.2,0.28,0.32,0.4c0.43,0.43,1.04,0.87,1.81,1.3c0.71,0.4,1.39,0.71,2.04,0.93
		c0.36,0.12,0.58,0.14,0.66,0.06c0.28-0.28-0.04-1.07-0.94-2.39c-0.71-1.02-1.33-1.8-1.87-2.33c-0.04-0.04-0.05-0.12-0.04-0.24
		c0.02-0.12,0.05-0.2,0.1-0.25C13.04,41.01,13.24,41.03,13.47,41.25z"></path>
	<path class="st0 aRRhEcfE_2" d="M21.85,41.93c0.1,0.1,0.07,0.23-0.09,0.38c-0.17,0.17-0.34,0.2-0.52,0.1c-0.03-0.01-0.17-0.15-0.42-0.4
		c-0.07-0.07-0.14-0.12-0.2-0.14c-0.11,0.69-0.39,1.26-0.85,1.72c-0.32,0.32-0.71,0.54-1.19,0.66c-0.54,0.14-0.96,0.06-1.25-0.23
		c-0.29-0.29-0.37-0.77-0.24-1.45c0.11-0.62,0.33-1.09,0.64-1.4l1.05-1.05c0-0.08-0.05-0.18-0.16-0.29
		c-0.47-0.47-0.87-0.79-1.19-0.95c-0.53-0.28-0.98-0.23-1.36,0.15c-0.27,0.27-0.35,0.69-0.23,1.25c0.11,0.52,0.3,0.92,0.58,1.2
		c0.01,0.01,0.04,0.04,0.06,0.06c0.03,0.03,0.04,0.05,0.05,0.05c0.06,0.06,0.06,0.11,0,0.17c-0.07,0.07-0.19,0.11-0.36,0.11
		s-0.29-0.03-0.35-0.1c-0.2-0.2-0.39-0.51-0.57-0.93c-0.18-0.42-0.28-0.78-0.29-1.08c-0.01-0.37,0.11-0.68,0.37-0.94
		c0.4-0.4,0.9-0.65,1.5-0.73c0.64-0.08,1.15,0.06,1.55,0.45L21.85,41.93z M19.6,40.81c-0.28-0.28-0.64-0.21-1.08,0.23
		c-0.35,0.35-0.59,0.71-0.73,1.09c-0.18,0.49-0.11,0.89,0.2,1.2c0.19,0.19,0.43,0.25,0.71,0.18c0.24-0.06,0.46-0.19,0.67-0.39
		c0.3-0.3,0.49-0.69,0.57-1.16S19.9,41.1,19.6,40.81z"></path>
	<path class="st0 aRRhEcfE_3" d="M26.24,37.03c0.04,0.12,0.02,0.21-0.05,0.29c-0.07,0.07-0.24,0.14-0.51,0.21l-0.08-0.08
		c-0.06-0.06-0.16-0.16-0.29-0.29c-0.13-0.13-0.22-0.22-0.28-0.28c-2.35-2.35-3.81-3.23-4.4-2.65c-0.18,0.18-0.25,0.51-0.19,0.99
		c0.13,1.2,0.7,2.3,1.71,3.32c0.13,0.13,0.35,0.31,0.65,0.53c0.3,0.22,0.51,0.4,0.65,0.53c0.11,0.11,0.09,0.23-0.06,0.38
		c-0.27,0.27-0.63,0.19-1.08-0.26l-2.41-2.41c-0.06-0.06-0.15-0.16-0.27-0.29c-0.11-0.13-0.2-0.22-0.27-0.29
		c-0.09-0.09-0.24-0.21-0.44-0.37c-0.2-0.15-0.34-0.27-0.43-0.35c-0.06-0.06-0.08-0.17-0.06-0.33s0.05-0.27,0.09-0.32
		c0.09-0.09,0.23-0.13,0.4-0.11c0.44,0.48,0.7,0.76,0.77,0.84c0.11,0.11,0.21,0.21,0.32,0.3c0.04-0.09,0.01-0.29-0.1-0.6
		c-0.13-0.4-0.2-0.7-0.21-0.89c-0.03-0.37,0.07-0.66,0.29-0.88c0.09-0.08,0.24-0.18,0.48-0.29c0.52-0.24,1.03-0.28,1.52-0.12
		c0.83,0.28,1.71,0.88,2.63,1.8L26.24,37.03z"></path>
	<path class="st0 aRRhEcfE_4" d="M33.36,28c0.4,0.4,0.45,0.95,0.17,1.65c-0.23,0.57-0.57,1.07-1.02,1.53c-0.42,0.42-0.96,0.79-1.62,1.11
		c-0.86,0.42-1.45,0.46-1.77,0.14c-0.18-0.18-0.18-0.35-0.01-0.52c0.13-0.13,0.37-0.21,0.7-0.23c0.48-0.01,0.74-0.02,0.77-0.03
		c0.45-0.09,0.97-0.44,1.57-1.04c0.81-0.81,1-1.42,0.57-1.85c-0.2-0.2-0.62-0.27-1.25-0.21c-0.1,0.01-0.55,0.09-1.37,0.22
		c-1.29,0.22-2.15,0.32-2.56,0.31c-0.92-0.03-1.69-0.36-2.32-0.99c-0.58-0.58-0.95-1.28-1.09-2.09c-0.17-0.9,0.03-1.64,0.58-2.2
		c0.47-0.47,1.08-0.68,1.82-0.61c0.65,0.06,1.27,0.29,1.87,0.7c0.18,0.16,0.46,0.39,0.86,0.69l0.47,0.3
		c0.57,0.57,0.71,0.99,0.43,1.26c-0.07,0.07-0.18,0.1-0.34,0.1c-0.16-0.01-0.27-0.05-0.34-0.12c-0.1-0.1-0.23-0.26-0.38-0.49
		c-0.15-0.23-0.28-0.39-0.38-0.49c-0.49-0.49-1-0.84-1.53-1.06c-0.71-0.31-1.28-0.25-1.69,0.16c-0.41,0.41-0.58,0.94-0.49,1.58
		c0.09,0.64,0.35,1.18,0.78,1.61c0.58,0.58,1.44,0.83,2.56,0.74c0.96-0.15,1.93-0.31,2.9-0.46C32.31,27.56,33.01,27.65,33.36,28z"></path>
	<path class="st0 aRRhEcfE_5" d="M34.12,22.36c-0.01,0.1-0.11,0.27-0.3,0.51c-0.21,0.26-0.32,0.42-0.33,0.48c0.07,0.09,0.46,0.48,1.17,1.19
		c0.55,0.55,0.93,0.92,1.13,1.09c0.08,0.08,0.22,0.18,0.42,0.32s0.35,0.25,0.45,0.34c0.06,0.06,0.08,0.15,0.06,0.28
		c-0.01,0.13-0.05,0.22-0.11,0.28c-0.14,0.14-0.4,0.11-0.77-0.09c-0.27-0.16-0.5-0.33-0.69-0.52c-1-1-1.73-1.73-2.21-2.21
		c-0.08,0.01-0.24,0.16-0.48,0.48c-0.19,0.25-0.38,0.28-0.57,0.09c-0.27-0.27-0.11-0.68,0.49-1.23l-1.78-2.06
		c-0.02-0.02-0.06-0.05-0.13-0.07c-0.06-0.03-0.11-0.05-0.13-0.07c-0.04-0.04-0.05-0.11-0.04-0.21s0.07-0.18,0.15-0.25
		c0.27-0.23,0.52-0.23,0.74,0c0.18,0.18,0.42,0.47,0.72,0.87c0.3,0.4,0.54,0.69,0.71,0.86c0.08,0.08,0.17,0.16,0.27,0.22l0.55-0.62
		c0.2-0.2,0.38-0.22,0.53-0.06C34.11,22.07,34.15,22.21,34.12,22.36z"></path>
	<path class="st0 aRRhEcfE_6" d="M37.22,18.4c0.03,0.03,0.08,0.09,0.17,0.19c0.05,0.23,0.03,0.39-0.05,0.48c-0.06,0.06-0.14,0.07-0.25,0.04
		c-0.47-0.42-0.87-0.46-1.22-0.12c-0.23,0.23-0.03,0.87,0.58,1.92c0.22,0.39,0.58,0.84,1.09,1.35c0.65,0.65,1.07,1.03,1.25,1.15
		c0.03,0.01,0.09,0.04,0.19,0.08c0.09,0.04,0.16,0.08,0.2,0.11c0.16,0.16,0.13,0.34-0.08,0.55c-0.24,0.24-0.48,0.24-0.73-0.01
		c-0.04-0.04-0.08-0.1-0.13-0.18c-0.05-0.08-0.09-0.15-0.13-0.18c-0.39-0.39-0.99-0.95-1.8-1.7c-0.81-0.74-1.42-1.31-1.8-1.7
		c-0.14-0.14-0.2-0.25-0.19-0.33s0.1-0.19,0.24-0.33c0.18-0.18,0.34-0.22,0.5-0.12c0.15,0.13,0.29,0.27,0.43,0.39
		c-0.1-0.47-0.15-0.73-0.16-0.8c-0.02-0.33,0.05-0.58,0.22-0.75c0.13-0.13,0.29-0.22,0.5-0.26c0.11-0.03,0.32-0.02,0.62,0.04
		C36.97,18.26,37.15,18.32,37.22,18.4z"></path>
	<path class="st0 aRRhEcfE_7" d="M42.89,16.1c0.61,0.61,1,1.27,1.19,1.99c0.23,0.86,0.06,1.58-0.51,2.14c-0.57,0.57-1.22,0.78-1.95,0.62
		c-0.6-0.13-1.21-0.51-1.81-1.11c-0.6-0.6-1.06-1.33-1.37-2.17c-0.38-1.05-0.3-1.84,0.22-2.37c0.13-0.13,0.4-0.25,0.81-0.34
		C40.64,14.59,41.78,15,42.89,16.1z M42.37,16.6c-0.45-0.45-0.92-0.8-1.4-1.04c-0.68-0.33-1.2-0.3-1.57,0.06
		c-0.42,0.42-0.48,1.04-0.16,1.83c0.25,0.62,0.62,1.17,1.11,1.67c0.45,0.45,0.88,0.76,1.32,0.93c0.6,0.23,1.1,0.16,1.49-0.23
		c0.42-0.42,0.5-0.99,0.24-1.69C43.19,17.6,42.85,17.08,42.37,16.6z"></path>
	<path class="st0 aRRhEcfE_8" d="M49.43,13.85c0.04,0.12,0.02,0.21-0.05,0.29s-0.24,0.14-0.51,0.21l-0.08-0.08c-0.06-0.06-0.16-0.16-0.29-0.29
		c-0.13-0.13-0.22-0.22-0.28-0.28c-2.35-2.35-3.81-3.23-4.4-2.65c-0.18,0.18-0.24,0.51-0.19,0.99c0.13,1.2,0.7,2.3,1.71,3.32
		c0.13,0.13,0.35,0.31,0.65,0.53c0.3,0.22,0.51,0.4,0.65,0.53c0.11,0.11,0.09,0.23-0.06,0.38c-0.27,0.27-0.63,0.19-1.08-0.26
		l-2.41-2.41c-0.06-0.06-0.15-0.16-0.27-0.29c-0.11-0.13-0.2-0.22-0.26-0.29c-0.09-0.09-0.24-0.21-0.44-0.37
		c-0.2-0.15-0.34-0.27-0.43-0.35c-0.06-0.06-0.08-0.17-0.06-0.33c0.01-0.16,0.04-0.27,0.09-0.32c0.09-0.09,0.23-0.13,0.4-0.11
		c0.44,0.48,0.7,0.76,0.77,0.84c0.11,0.11,0.21,0.21,0.32,0.3c0.04-0.09,0.01-0.29-0.09-0.6c-0.13-0.4-0.2-0.7-0.21-0.89
		c-0.03-0.37,0.07-0.66,0.29-0.88c0.08-0.08,0.24-0.18,0.48-0.29c0.52-0.24,1.03-0.28,1.52-0.12c0.83,0.28,1.71,0.88,2.63,1.8
		L49.43,13.85z"></path>
	<path class="st0 aRRhEcfE_9" d="M50.51,6.29c0.04,0.04,0.1,0.11,0.17,0.19c0.56,0.86,1.05,1.5,1.48,1.93c0.22,0.22,0.57,0.54,1.04,0.98
		c0.47,0.43,0.82,0.76,1.05,0.99c0.44,0.44,0.72,0.79,0.85,1.06c0.15,0.32,0.18,0.68,0.1,1.07c-0.08,0.4-0.25,0.72-0.51,0.98
		c-0.3,0.3-0.7,0.58-1.22,0.84c-0.65,0.34-1.08,0.4-1.3,0.18c-0.19-0.19-0.21-0.36-0.06-0.51c0.06-0.06,0.16-0.08,0.3-0.04
		c0.19,0.05,0.3,0.07,0.34,0.06c0.11,0,0.31-0.09,0.59-0.28c0.27-0.16,0.46-0.29,0.56-0.39c0.4-0.4,0.54-0.85,0.44-1.37
		c-0.08-0.44-0.34-0.87-0.76-1.29c-0.45-0.45-0.85-0.77-1.2-0.97c0.11,0.79-0.08,1.42-0.55,1.89c-0.14,0.14-0.36,0.26-0.64,0.35
		c-0.29,0.1-0.53,0.13-0.74,0.11c-0.42-0.04-0.87-0.3-1.36-0.78c-0.6-0.6-1.14-1.36-1.61-2.27c-0.61-1.18-0.69-2-0.23-2.46
		c0.37-0.37,1.09-0.42,2.16-0.17c0.12,0.04,0.29,0.07,0.51,0.11C50.03,6.43,50.23,6.36,50.51,6.29z M50.46,7.51
		c-0.15-0.15-0.33-0.22-0.53-0.21c-0.32-0.28-0.65-0.46-0.98-0.54c-0.43-0.1-0.78-0.01-1.05,0.27c-0.19,0.19-0.17,0.6,0.07,1.22
		c0.18,0.47,0.39,0.87,0.62,1.2c0.35,0.5,0.68,0.89,0.98,1.19c0.87,0.87,1.55,1.05,2.06,0.55c0.38-0.38,0.38-1.02,0-1.91
		C51.31,8.56,50.92,7.97,50.46,7.51z"></path>
</g>
<g>
</g>
<g>
</g>
<g>
</g>
<g>
</g>
<g>
</g>
<g>
</g>
<style data-made-with="vivus-instant">.aRRhEcfE_0{stroke-dasharray:47 49;stroke-dashoffset:48;animation:aRRhEcfE_draw 653ms ease-out 0ms forwards;}.aRRhEcfE_1{stroke-dasharray:28 30;stroke-dashoffset:29;animation:aRRhEcfE_draw 395ms ease-out 653ms forwards;}.aRRhEcfE_2{stroke-dasharray:38 40;stroke-dashoffset:39;animation:aRRhEcfE_draw 531ms ease-out 1049ms forwards;}.aRRhEcfE_3{stroke-dasharray:34 36;stroke-dashoffset:35;animation:aRRhEcfE_draw 476ms ease-out 1580ms forwards;}.aRRhEcfE_4{stroke-dasharray:51 53;stroke-dashoffset:52;animation:aRRhEcfE_draw 708ms ease-out 2057ms forwards;}.aRRhEcfE_5{stroke-dasharray:23 25;stroke-dashoffset:24;animation:aRRhEcfE_draw 326ms ease-out 2765ms forwards;}.aRRhEcfE_6{stroke-dasharray:21 23;stroke-dashoffset:22;animation:aRRhEcfE_draw 299ms ease-out 3092ms forwards;}.aRRhEcfE_7{stroke-dasharray:34 36;stroke-dashoffset:35;animation:aRRhEcfE_draw 476ms ease-out 3392ms forwards;}.aRRhEcfE_8{stroke-dasharray:34 36;stroke-dashoffset:35;animation:aRRhEcfE_draw 476ms ease-out 3869ms forwards;}.aRRhEcfE_9{stroke-dasharray:47 49;stroke-dashoffset:48;animation:aRRhEcfE_draw 653ms ease-out 4346ms forwards;}@keyframes aRRhEcfE_draw{100%{stroke-dashoffset:0;}}@keyframes aRRhEcfE_fade{0%{stroke-opacity:1;}95.65217391304348%{stroke-opacity:1;}100%{stroke-opacity:0;}}</style></svg>
