<!--?xml version="1.0" encoding="utf-8"?-->
<!-- Generator: Adobe Illustrator 23.0.1, SVG Export Plug-In . SVG Version: 6.00 Build 0)  -->
<svg version="1.1" id="Layer_1" xmlns="http://www.w3.org/2000/svg" xmlns:xlink="http://www.w3.org/1999/xlink" x="0px" y="0px" viewBox="0 0 282.7 64.36" style="" xml:space="preserve">
<style type="text/css">
	.st0{stroke:#FFFFFF;stroke-miterlimit:10;}
</style>
<path class="st0 YvXzhOJf_0" d="M3.87,6.73H29.2v6.12H10.92v7.34H27.7v6H10.92v8.88h19.12v6.21H3.87V6.73"></path>
<path class="st0 YvXzhOJf_1" d="M32.61,15.73h7.5l5.32,18.84l5.44-18.84h7.17l-9.23,25.55h-7.04L32.61,15.73"></path>
<path class="st0 YvXzhOJf_2" d="M60.91,24c0.14-2.23,0.77-4.07,1.88-5.51c1.77-2.25,4.82-3.38,9.13-3.38c2.81,0,5.3,0.55,7.49,1.66
	c2.18,1.11,3.27,3.2,3.27,6.28v11.72c0,0.81,0.02,1.8,0.05,2.95c0.05,0.88,0.18,1.47,0.4,1.78s0.55,0.57,0.98,0.77v0.98h-7.27
	c-0.2-0.52-0.34-1-0.42-1.45s-0.14-0.97-0.19-1.55c-0.93,1-2,1.85-3.21,2.55c-1.45,0.83-3.08,1.24-4.9,1.24
	c-2.33,0-4.25-0.66-5.76-1.98c-1.52-1.32-2.27-3.19-2.27-5.61c0-3.14,1.22-5.41,3.66-6.82c1.34-0.77,3.31-1.31,5.9-1.64l2.29-0.28
	c1.24-0.16,2.13-0.35,2.67-0.59c0.96-0.41,1.44-1.04,1.44-1.9c0-1.05-0.37-1.77-1.1-2.17c-0.74-0.4-1.82-0.6-3.24-0.6
	c-1.6,0-2.73,0.39-3.4,1.17c-0.48,0.58-0.79,1.36-0.95,2.34H60.91 M76.03,28.85c-0.43,0.27-0.86,0.48-1.29,0.64
	s-1.03,0.32-1.79,0.46l-1.52,0.28c-1.43,0.25-2.45,0.55-3.07,0.91c-1.05,0.61-1.58,1.55-1.58,2.84c0,1.14,0.32,1.96,0.96,2.47
	s1.42,0.76,2.34,0.76c1.46,0,2.8-0.42,4.03-1.27s1.87-2.38,1.92-4.62V28.85z"></path>
<path class="st0 YvXzhOJf_3" d="M88.57,15.77h6.47v3.73c0.86-1.31,1.67-2.26,2.43-2.84c1.37-1.03,3.1-1.55,5.2-1.55c2.63,0,4.78,0.69,6.45,2.07
	c1.67,1.38,2.51,3.68,2.51,6.88v17.2h-6.84V25.73c0-1.34-0.18-2.38-0.54-3.09c-0.65-1.31-1.89-1.97-3.72-1.97
	c-2.25,0-3.79,0.96-4.63,2.88c-0.43,1.02-0.65,2.31-0.65,3.89v13.83h-6.68V15.77"></path>
<path class="st0 YvXzhOJf_4" d="M157.57,17.02h-6.94c-0.13-2.08-1.06-3.55-2.79-4.43c-1.15-0.58-2.59-0.87-4.3-0.87
	c-1.91,0-3.43,0.38-4.57,1.12s-1.71,1.8-1.71,3.14c0,1.23,0.56,2.16,1.68,2.77c0.72,0.41,2.25,0.88,4.59,1.43l6.06,1.43
	c2.66,0.62,4.65,1.46,5.98,2.51c2.06,1.62,3.09,3.98,3.09,7.05c0,3.16-1.22,5.78-3.66,7.86c-2.44,2.09-5.89,3.13-10.34,3.13
	c-4.55,0-8.12-1.03-10.73-3.08c-2.61-2.05-3.91-4.88-3.91-8.47h6.89c0.22,1.58,0.66,2.76,1.32,3.54c1.2,1.42,3.25,2.13,6.15,2.13
	c1.74,0,3.15-0.19,4.24-0.56c2.06-0.72,3.09-2.05,3.09-4.01c0-1.14-0.5-2.02-1.51-2.65c-1.01-0.61-2.61-1.15-4.8-1.62l-3.74-0.82
	c-3.68-0.81-6.2-1.7-7.58-2.65c-2.33-1.59-3.49-4.09-3.49-7.48c0-3.09,1.14-5.66,3.42-7.71c2.28-2.05,5.62-3.07,10.04-3.07
	c3.68,0,6.83,0.96,9.43,2.89C156.08,10.54,157.44,13.34,157.57,17.02"></path>
<path class="st0 YvXzhOJf_5" d="M164.13,8.84h6.61v7.12h4.15v4.76h-4.15v13.5c0,1.05,0.13,1.7,0.4,1.96s1.08,0.39,2.44,0.39
	c0.2,0,0.42,0,0.64-0.01s0.45-0.02,0.67-0.04v4.99l-3.16,0.12c-3.16,0.11-5.31-0.44-6.47-1.64c-0.75-0.77-1.12-1.95-1.12-3.54V20.72
	h-3.56v-4.76h3.56V8.84"></path>
<path class="st0 YvXzhOJf_6" d="M179.11,15.73h6.38v4.45c1.03-1.7,1.93-2.87,2.7-3.49c1.25-1.05,2.88-1.57,4.88-1.57c0.12,0,0.23,0,0.32,0.01
	s0.28,0.02,0.57,0.04v6.84c-0.42-0.05-0.8-0.08-1.12-0.09s-0.59-0.02-0.8-0.02c-2.69,0-4.49,0.88-5.41,2.62
	c-0.52,0.98-0.77,2.5-0.77,4.55v12.21h-6.73V15.73"></path>
<path class="st0 YvXzhOJf_7" d="M209.34,14.91c4.39,0,7.66,1.35,9.82,4.05s3.23,5.89,3.23,9.58c0,3.75-1.08,6.95-3.23,9.61
	c-2.16,2.66-5.43,3.99-9.82,3.99s-7.66-1.33-9.82-3.99c-2.16-2.66-3.23-5.87-3.23-9.61c0-3.68,1.08-6.88,3.23-9.58
	S204.95,14.91,209.34,14.91 M209.32,20.55c-1.95,0-3.46,0.69-4.51,2.07s-1.58,3.35-1.58,5.91c0,2.56,0.53,4.53,1.58,5.92
	s2.56,2.08,4.51,2.08s3.45-0.69,4.5-2.08s1.57-3.36,1.57-5.92c0-2.56-0.52-4.53-1.57-5.91S211.27,20.55,209.32,20.55"></path>
<path class="st0 YvXzhOJf_8" d="M227.23,15.77h6.47v3.73c0.86-1.31,1.67-2.26,2.43-2.84c1.37-1.03,3.1-1.55,5.2-1.55
	c2.63,0,4.78,0.69,6.45,2.07s2.51,3.68,2.51,6.88v17.2h-6.84V25.73c0-1.34-0.18-2.38-0.54-3.09c-0.65-1.31-1.89-1.97-3.72-1.97
	c-2.25,0-3.79,0.96-4.63,2.88c-0.43,1.02-0.65,2.31-0.65,3.89v13.83h-6.68V15.77"></path>
<path class="st0 YvXzhOJf_9" d="M273.07,19.41v-3.68h6.52v24.23c0,3.3-0.55,5.78-1.66,7.45c-1.91,2.88-5.56,4.31-10.97,4.31
	c-3.27,0-5.93-0.64-7.99-1.92s-3.2-3.2-3.42-5.74h7.27c0.19,0.78,0.49,1.34,0.91,1.69c0.72,0.61,1.93,0.91,3.63,0.91
	c2.41,0,4.02-0.8,4.83-2.41c0.53-1.03,0.8-2.77,0.8-5.2v-1.64c-0.64,1.09-1.33,1.91-2.06,2.46c-1.33,1.02-3.05,1.52-5.18,1.52
	c-3.28,0-5.9-1.15-7.86-3.46s-2.94-5.43-2.94-9.36c0-3.8,0.94-6.99,2.83-9.57c1.89-2.59,4.56-3.88,8.03-3.88
	c1.28,0,2.39,0.2,3.35,0.59C270.76,16.38,272.07,17.61,273.07,19.41 M273.02,28.38c0-2.42-0.51-4.27-1.53-5.53
	c-1.02-1.27-2.38-1.9-4.1-1.9c-2.33,0-3.94,1.1-4.83,3.3c-0.47,1.17-0.7,2.62-0.7,4.34c0,1.48,0.25,2.8,0.75,3.96
	c0.9,2.16,2.52,3.23,4.85,3.23c1.56,0,2.87-0.59,3.94-1.77C272.49,32.84,273.02,30.96,273.02,28.38"></path>
<style data-made-with="vivus-instant">.YvXzhOJf_0{stroke-dasharray:192 194;stroke-dashoffset:193;animation:YvXzhOJf_draw 1420ms linear 0ms forwards;}.YvXzhOJf_1{stroke-dasharray:116 118;stroke-dashoffset:117;animation:YvXzhOJf_draw 1420ms linear 8ms forwards;}.YvXzhOJf_2{stroke-dasharray:152 154;stroke-dashoffset:153;animation:YvXzhOJf_draw 1420ms linear 17ms forwards;}.YvXzhOJf_3{stroke-dasharray:137 139;stroke-dashoffset:138;animation:YvXzhOJf_draw 1420ms linear 26ms forwards;}.YvXzhOJf_4{stroke-dasharray:191 193;stroke-dashoffset:192;animation:YvXzhOJf_draw 1420ms linear 35ms forwards;}.YvXzhOJf_5{stroke-dasharray:100 102;stroke-dashoffset:101;animation:YvXzhOJf_draw 1420ms linear 44ms forwards;}.YvXzhOJf_6{stroke-dasharray:86 88;stroke-dashoffset:87;animation:YvXzhOJf_draw 1420ms linear 53ms forwards;}.YvXzhOJf_7{stroke-dasharray:131 133;stroke-dashoffset:132;animation:YvXzhOJf_draw 1420ms linear 62ms forwards;}.YvXzhOJf_8{stroke-dasharray:137 139;stroke-dashoffset:138;animation:YvXzhOJf_draw 1420ms linear 71ms forwards;}.YvXzhOJf_9{stroke-dasharray:194 196;stroke-dashoffset:195;animation:YvXzhOJf_draw 1420ms linear 80ms forwards;}@keyframes YvXzhOJf_draw{100%{stroke-dashoffset:0;}}@keyframes YvXzhOJf_fade{0%{stroke-opacity:1;}92.98245614035088%{stroke-opacity:1;}100%{stroke-opacity:0;}}</style></svg>
